<svg xmlns="http://www.w3.org/2000/svg" viewBox="0 0 64 64" role="img" aria-label="Fleet icon">
    <defs>
        <linearGradient id="bg" x1="0%" y1="0%" x2="100%" y2="100%">
            <stop offset="0%" stop-color="#0f172a" />
            <stop offset="100%" stop-color="#111827" />
        </linearGradient>
        <linearGradient id="car" x1="0%" y1="0%" x2="100%" y2="100%">
            <stop offset="0%" stop-color="#22d3ee" />
            <stop offset="100%" stop-color="#0ea5e9" />
        </linearGradient>
    </defs>
    <rect x="2" y="2" width="60" height="60" rx="14" fill="url(#bg)" stroke="#0ea5e9" stroke-width="2" />
    <path fill="url(#car)" d="M12 34a6 6 0 0 1 6-6h28l4.5-7a4 4 0 0 1 3.4-1.9H50l-4 7H20l-4 7z" />
    <path fill="#0f172a" opacity="0.75" d="M10 38h44v7a3 3 0 0 1-3 3h-2a6 6 0 0 0-12 0H27a6 6 0 0 0-12 0h-2a3 3 0 0 1-3-3z" />
    <circle cx="22" cy="48" r="5" fill="#a5f3fc" />
    <circle cx="42" cy="48" r="5" fill="#a5f3fc" />
    <circle cx="22" cy="48" r="2.5" fill="#0f172a" />
    <circle cx="42" cy="48" r="2.5" fill="#0f172a" />
</svg>
